<svg xmlns="http://www.w3.org/2000/svg" viewBox="0 0 256 256">
<defs>
<radialGradient id="bg" cx="50%" cy="45%" r="65%"><stop offset="0" stop-color="#1236b5"/><stop offset="1" stop-color="#00124d"/></radialGradient>
<filter id="glow"><feGaussianBlur stdDeviation="2.2" result="b"/><feMerge><feMergeNode in="b"/><feMergeNode in="SourceGraphic"/></feMerge></filter>
<filter id="shadow"><feDropShadow dx="0" dy="2" stdDeviation="2" flood-opacity=".7"/></filter>
</defs>
<rect width="256" height="256" rx="50%" fill="#000"/>
<circle cx="128" cy="128" r="119" fill="url(#bg)" stroke="#00d9ff" stroke-width="5" filter="url(#glow)"/>
<circle cx="128" cy="128" r="108" fill="none" stroke="#ffd21a" stroke-width="2"/>
<circle cx="128" cy="128" r="96" fill="none" stroke="#00c8ff" stroke-width="2"/>
<circle cx="128" cy="128" r="91" fill="none" stroke="#e8faff" stroke-width="2"/>
<g stroke="#55d9ff" stroke-width="2"><path d="M128 29v16M128 211v16M29 128h16M211 128h16"/><path d="M58 58l11 11M187 187l11 11M198 58l-11 11M69 187l-11 11"/></g>
<g stroke="#2ccfff" stroke-width="2" opacity=".9"><path d="M128 38v8M128 210v8M38 128h8M210 128h8"/><path d="M77 46l4 8M175 202l4 8M202 77l8 4M46 175l8 4"/><path d="M46 77l8 4M202 175l8 4M77 210l4-8M175 54l4-8"/></g>
<g fill="#ffd21a" filter="url(#shadow)">
<text x="89" y="160" font-family="Arial,Helvetica,sans-serif" font-size="88" font-weight="900" text-anchor="middle">J</text>
<g transform="translate(169 160) scale(-1 1)"><text x="0" y="0" font-family="Arial,Helvetica,sans-serif" font-size="88" font-weight="900" text-anchor="middle">J</text></g>
<circle cx="128" cy="128" r="9"/>
</g></svg>